<svg width="43" height="43" viewBox="0 0 43 43" fill="none" xmlns="http://www.w3.org/2000/svg">
<path d="M39.3829 11.3381L28.3937 0.348871C28.1972 0.1524 27.9306 0.0420192 27.6527 0.0419922H15.3449C8.70895 0.0419922 3.31026 5.44177 3.31026 12.0791V27.1549C3.31026 27.7337 3.7794 28.2028 4.35814 28.2028C4.93687 28.2028 5.40601 27.7337 5.40601 27.1549V12.0791C5.40601 6.59739 9.86457 2.13774 15.345 2.13774H26.6049V6.57144C26.6049 10.1717 29.534 13.1007 33.1343 13.1007H37.5941V30.9234C37.5941 36.4038 33.1345 40.8623 27.6528 40.8623H15.3449C9.86449 40.8623 5.40593 36.4038 5.40593 30.9234C5.40593 30.3446 4.93679 29.8755 4.35805 29.8755C3.77932 29.8755 3.31018 30.3446 3.31018 30.9234C3.31018 37.5593 8.70895 42.958 15.3448 42.958H27.6527C34.29 42.958 39.6898 37.5593 39.6898 30.9234V12.0791C39.6898 11.8011 39.5793 11.5346 39.3829 11.3381ZM28.7006 6.57136V3.61956L36.086 11.005H33.1343C30.6895 11.005 28.7006 9.01614 28.7006 6.57136Z" fill="#316FF6"/>
<path d="M17.0071 22.795C17.2345 22.9857 17.4105 23.2313 17.5351 23.532C17.6671 23.8327 17.7331 24.1957 17.7331 24.621C17.7331 25.1197 17.6378 25.578 17.4471 25.996C17.2565 26.4067 16.9595 26.722 16.5561 26.942C16.4021 27.03 16.2371 27.0997 16.0611 27.151C15.8925 27.195 15.7238 27.228 15.5551 27.25C15.3865 27.272 15.2251 27.2867 15.0711 27.294C14.9171 27.294 14.7778 27.294 14.6531 27.294H13.8391V30H12.0241V22.157H14.6531C15.2251 22.157 15.6945 22.212 16.0611 22.322C16.4351 22.4247 16.7505 22.5823 17.0071 22.795ZM15.5771 25.545C15.8045 25.3837 15.9181 25.1123 15.9181 24.731C15.9181 24.5257 15.8851 24.357 15.8191 24.225C15.7605 24.0857 15.6761 23.9757 15.5661 23.895C15.4121 23.7923 15.2251 23.73 15.0051 23.708C14.7925 23.686 14.5908 23.675 14.4001 23.675H13.8391V25.776H14.4001C14.4881 25.776 14.5835 25.776 14.6861 25.776C14.7961 25.7687 14.9025 25.7577 15.0051 25.743C15.1151 25.7283 15.2178 25.7063 15.3131 25.677C15.4158 25.6477 15.5038 25.6037 15.5771 25.545ZM19.2558 30V22.157H21.7418C22.4018 22.157 22.9554 22.2193 23.4028 22.344C23.8574 22.4613 24.2498 22.6373 24.5798 22.872C25.0491 23.2093 25.3974 23.653 25.6248 24.203C25.8594 24.7457 25.9768 25.3727 25.9768 26.084C25.9768 26.7953 25.8594 27.4223 25.6248 27.965C25.3974 28.5077 25.0491 28.9477 24.5798 29.285C24.2498 29.5197 23.8574 29.6993 23.4028 29.824C22.9554 29.9413 22.4018 30 21.7418 30H19.2558ZM21.0708 28.416H21.7308C22.0681 28.416 22.3651 28.3793 22.6218 28.306C22.8858 28.2327 23.1131 28.13 23.3038 27.998C23.5898 27.8073 23.8024 27.5507 23.9418 27.228C24.0884 26.898 24.1618 26.5167 24.1618 26.084C24.1618 25.644 24.0884 25.2627 23.9418 24.94C23.8024 24.61 23.5898 24.3497 23.3038 24.159C22.9078 23.8877 22.3834 23.752 21.7308 23.752H21.0708V28.416ZM32.3891 23.752H29.4411V25.292H31.9821V26.865H29.4411V30H27.6261V22.157H32.3891V23.752Z" fill="#316FF6"/>
</svg>
