<svg width="512" height="512" viewBox="0 0 512 512" fill="none" xmlns="http://www.w3.org/2000/svg">
<path d="M277.333 384H106.667C93.8667 384 85.3334 375.467 85.3334 362.667C85.3334 349.867 93.8667 341.333 106.667 341.333H277.333C290.133 341.333 298.667 349.867 298.667 362.667C298.667 375.467 290.133 384 277.333 384ZM405.333 277.333H106.667C93.8667 277.333 85.3334 268.8 85.3334 256C85.3334 243.2 93.8667 234.667 106.667 234.667H405.333C418.133 234.667 426.667 243.2 426.667 256C426.667 268.8 418.133 277.333 405.333 277.333ZM405.333 170.667H234.667C221.867 170.667 213.333 162.133 213.333 149.333C213.333 136.533 221.867 128 234.667 128H405.333C418.133 128 426.667 136.533 426.667 149.333C426.667 162.133 418.133 170.667 405.333 170.667Z" fill="black"/>
</svg>
