<svg width="32" height="32" viewBox="0 0 32 32" fill="none" xmlns="http://www.w3.org/2000/svg">
<path d="M11.3333 25.3333H10.6666C5.33329 25.3333 2.66663 24 2.66663 17.3333V10.6666C2.66663 5.33329 5.33329 2.66663 10.6666 2.66663H21.3333C26.6666 2.66663 29.3333 5.33329 29.3333 10.6666V17.3333C29.3333 22.6666 26.6666 25.3333 21.3333 25.3333H20.6666C20.2533 25.3333 19.8533 25.5333 19.6 25.8666L17.6 28.5333C16.72 29.7066 15.28 29.7066 14.4 28.5333L12.4 25.8666C12.1866 25.5733 11.6933 25.3333 11.3333 25.3333Z" stroke="#292D32" stroke-width="1.5" stroke-miterlimit="10" stroke-linecap="round" stroke-linejoin="round"/>
<path d="M21.3287 14.6667H21.3406" stroke="#292D32" stroke-width="2" stroke-linecap="round" stroke-linejoin="round"/>
<path d="M15.9939 14.6667H16.0059" stroke="#292D32" stroke-width="2" stroke-linecap="round" stroke-linejoin="round"/>
<path d="M10.6593 14.6667H10.6713" stroke="#292D32" stroke-width="2" stroke-linecap="round" stroke-linejoin="round"/>
</svg>
