<svg xmlns="http://www.w3.org/2000/svg" width="43" height="43" viewBox="0 0 43 43" fill="none">
<path d="M39.3829 11.3381L28.3937 0.348871C28.1972 0.1524 27.9306 0.0420192 27.6527 0.0419922H15.3449C8.70895 0.0419922 3.31026 5.44177 3.31026 12.0791V27.1549C3.31026 27.7337 3.7794 28.2028 4.35814 28.2028C4.93687 28.2028 5.40601 27.7337 5.40601 27.1549V12.0791C5.40601 6.59739 9.86457 2.13774 15.345 2.13774H26.6049V6.57144C26.6049 10.1717 29.534 13.1007 33.1343 13.1007H37.5941V30.9234C37.5941 36.4038 33.1345 40.8623 27.6528 40.8623H15.3449C9.86449 40.8623 5.40593 36.4038 5.40593 30.9234C5.40593 30.3446 4.93679 29.8755 4.35805 29.8755C3.77932 29.8755 3.31018 30.3446 3.31018 30.9234C3.31018 37.5593 8.70895 42.958 15.3448 42.958H27.6527C34.29 42.958 39.6898 37.5593 39.6898 30.9234V12.0791C39.6898 11.8011 39.5793 11.5346 39.3829 11.3381ZM28.7006 6.57136V3.61956L36.086 11.005H33.1343C30.6895 11.005 28.7006 9.01614 28.7006 6.57136Z" fill="#316FF6"/>
<path d="M10.7386 30V22.87H12.9986C13.5986 22.87 14.102 22.9267 14.5086 23.04C14.922 23.1467 15.2786 23.3067 15.5786 23.52C16.0053 23.8267 16.322 24.23 16.5286 24.73C16.742 25.2233 16.8486 25.7933 16.8486 26.44C16.8486 27.0867 16.742 27.6567 16.5286 28.15C16.322 28.6433 16.0053 29.0433 15.5786 29.35C15.2786 29.5633 14.922 29.7267 14.5086 29.84C14.102 29.9467 13.5986 30 12.9986 30H10.7386ZM12.3886 28.56H12.9886C13.2953 28.56 13.5653 28.5267 13.7986 28.46C14.0386 28.3933 14.2453 28.3 14.4186 28.18C14.6786 28.0067 14.872 27.7733 14.9986 27.48C15.132 27.18 15.1986 26.8333 15.1986 26.44C15.1986 26.04 15.132 25.6933 14.9986 25.4C14.872 25.1 14.6786 24.8633 14.4186 24.69C14.0586 24.4433 13.582 24.32 12.9886 24.32H12.3886V28.56ZM21.718 30.14C21.178 30.14 20.6813 30.05 20.228 29.87C19.7813 29.69 19.3947 29.44 19.068 29.12C18.748 28.7933 18.4947 28.4033 18.308 27.95C18.128 27.49 18.038 26.9867 18.038 26.44C18.038 25.8867 18.128 25.3833 18.308 24.93C18.4947 24.4767 18.748 24.0867 19.068 23.76C19.3947 23.4333 19.7813 23.18 20.228 23C20.6813 22.82 21.178 22.73 21.718 22.73C22.2513 22.73 22.7413 22.82 23.188 23C23.6413 23.18 24.0313 23.4333 24.358 23.76C24.6847 24.0867 24.938 24.4767 25.118 24.93C25.298 25.3833 25.388 25.8867 25.388 26.44C25.388 26.9867 25.298 27.49 25.118 27.95C24.938 28.4033 24.6847 28.7933 24.358 29.12C24.0313 29.44 23.6413 29.69 23.188 29.87C22.7413 30.05 22.2513 30.14 21.718 30.14ZM21.718 28.63C22.0113 28.63 22.2813 28.58 22.528 28.48C22.7747 28.3733 22.988 28.2233 23.168 28.03C23.348 27.8367 23.488 27.6067 23.588 27.34C23.688 27.0667 23.738 26.7667 23.738 26.44C23.738 26.1067 23.688 25.8067 23.588 25.54C23.488 25.2667 23.348 25.0367 23.168 24.85C22.988 24.6567 22.7747 24.5067 22.528 24.4C22.2813 24.2933 22.0113 24.24 21.718 24.24C21.4247 24.24 21.1513 24.2933 20.898 24.4C20.6513 24.5067 20.438 24.6567 20.258 24.85C20.078 25.0367 19.938 25.2667 19.838 25.54C19.738 25.8067 19.688 26.1067 19.688 26.44C19.688 26.7667 19.738 27.0667 19.838 27.34C19.938 27.6067 20.078 27.8367 20.258 28.03C20.438 28.2233 20.6513 28.3733 20.898 28.48C21.1513 28.58 21.4247 28.63 21.718 28.63ZM30.2258 30.14C29.6858 30.14 29.1892 30.05 28.7358 29.87C28.2892 29.69 27.9025 29.44 27.5758 29.12C27.2558 28.7933 27.0025 28.4033 26.8158 27.95C26.6358 27.49 26.5458 26.9867 26.5458 26.44C26.5458 25.8867 26.6358 25.3833 26.8158 24.93C27.0025 24.4767 27.2558 24.0867 27.5758 23.76C27.9025 23.4333 28.2892 23.18 28.7358 23C29.1892 22.82 29.6858 22.73 30.2258 22.73C30.6392 22.73 31.0258 22.7867 31.3858 22.9C31.7458 23.0067 32.0725 23.16 32.3658 23.36C32.6658 23.56 32.9258 23.8033 33.1458 24.09C33.3658 24.37 33.5358 24.6867 33.6558 25.04L32.1058 25.59C31.9725 25.17 31.7392 24.84 31.4058 24.6C31.0725 24.36 30.6792 24.24 30.2258 24.24C29.9325 24.24 29.6592 24.2933 29.4058 24.4C29.1592 24.5067 28.9458 24.6567 28.7658 24.85C28.5858 25.0367 28.4458 25.2667 28.3458 25.54C28.2458 25.8067 28.1958 26.1067 28.1958 26.44C28.1958 26.7667 28.2458 27.0667 28.3458 27.34C28.4458 27.6067 28.5858 27.8367 28.7658 28.03C28.9458 28.2233 29.1592 28.3733 29.4058 28.48C29.6592 28.58 29.9325 28.63 30.2258 28.63C30.6792 28.63 31.0725 28.51 31.4058 28.27C31.7392 28.03 31.9725 27.7 32.1058 27.28L33.6558 27.83C33.5358 28.1833 33.3658 28.5033 33.1458 28.79C32.9258 29.07 32.6658 29.31 32.3658 29.51C32.0725 29.71 31.7458 29.8667 31.3858 29.98C31.0258 30.0867 30.6392 30.14 30.2258 30.14Z" fill="#316FF6"/>
</svg>