<svg xmlns="http://www.w3.org/2000/svg" width="43" height="43" viewBox="0 0 43 43" fill="none">
<path d="M39.3829 11.3381L28.3937 0.348871C28.1972 0.1524 27.9306 0.0420192 27.6527 0.0419922H15.3449C8.70895 0.0419922 3.31026 5.44177 3.31026 12.0791V27.1549C3.31026 27.7337 3.7794 28.2028 4.35814 28.2028C4.93687 28.2028 5.40601 27.7337 5.40601 27.1549V12.0791C5.40601 6.59739 9.86457 2.13774 15.345 2.13774H26.6049V6.57144C26.6049 10.1717 29.534 13.1007 33.1343 13.1007H37.5941V30.9234C37.5941 36.4038 33.1345 40.8623 27.6528 40.8623H15.3449C9.86449 40.8623 5.40593 36.4038 5.40593 30.9234C5.40593 30.3446 4.93679 29.8755 4.35805 29.8755C3.77932 29.8755 3.31018 30.3446 3.31018 30.9234C3.31018 37.5593 8.70895 42.958 15.3448 42.958H27.6527C34.29 42.958 39.6898 37.5593 39.6898 30.9234V12.0791C39.6898 11.8011 39.5793 11.5346 39.3829 11.3381ZM28.7006 6.57136V3.61956L36.086 11.005H33.1343C30.6895 11.005 28.7006 9.01614 28.7006 6.57136Z" fill="#316FF6"/>
<path d="M17.6549 22.157V23.752H15.8289V30H14.0139V23.752H12.1879V22.157H17.6549ZM18.3548 30L21.4238 25.919L18.4208 22.157H20.6318L22.5018 24.588L24.3718 22.157H26.5828L23.5798 25.919L26.6488 30H24.3718L22.5018 27.415L20.6318 30H18.3548ZM32.8272 22.157V23.752H31.0012V30H29.1862V23.752H27.3602V22.157H32.8272Z" fill="#316FF6"/>
</svg>